# xmcd
#
# Track frame offsets:
#	150
#	11480
#	28410
#	42057
#	62820
#	81170
#	94052
#	113720
#	131015
#	148552
#	166062
#	177715
#
# Disc length: 2524 seconds
#
# Revision: 0
# Processed by: cddbd v1.4b42PL0 Copyright (c) Steve Scherf et al.
# Submitted via: EasyCDDAExtractor 4.5.0.1
#
DISCID=9f09da0c
DTITLE=Willie Nelson - He's On The Road Again [CD2]
DYEAR=1900
DGENRE=
TTITLE0=On The Road Again
TTITLE1=San Antonio Rose [with Ray Price]
TTITLE2=Send Me The Pillow You Dream On [with Hank Snow]
TTITLE3=September Song
TTITLE4=Someone To Watch Over Me
TTITLE5=You Are My Sunshine [with Leon Russell]
TTITLE6=Last Thing I Needed The First Thing This Morning
TTITLE7=Wind Beneath My Wings
TTITLE8=Without A Song
TTITLE9=Stardust
TTITLE10=Don't Get Around Much Anymore
TTITLE11=On The Sunny Side Of The Street
EXTD=
EXTT0=
EXTT1=
EXTT2=
EXTT3=
EXTT4=
EXTT5=
EXTT6=
EXTT7=
EXTT8=
EXTT9=
EXTT10=
EXTT11=
PLAYORDER=
